#!OML:ASF I:\Actors\actors\Patient Classification 2\Patient 1\Session 1\actor1.ASF
:FULLY-SPECIFIED
:DEGREES
921
root -0.702651 18.8439 5.08227 28.0085 3.33861 -0.612125
lowerback 25.2132 0.301148 2.00839
upperback 1.05094 1.16163 1.43268
thorax -12.9608 0.461057 0.0607514
lowerneck -8.49452 -3.49076 -2.68596
upperneck -19.9389 -3.51013 8.12952
head -4.38415 -1.96475 3.03118
rclavicle 3.97569e-015 2.38542e-015
rhumerus 0.885452 26.6708 -70.9519
rradius 45.5869
rwrist 10.4821
rhand -24.6814 -35.8088
rfingers 7.12502
rthumb 1.81929 -65.7808
lclavicle 3.97569e-015 2.38542e-015
lhumerus 4.26699 -23.7927 78.8769
lradius 44.8196
lwrist -13.5707
lhand -21.9176 -43.6326
lfingers 7.12502
lthumb 4.48834 -13.7002
rfemur -30.9629 -1.49069 14.7919
rtibia 13.01
rfoot -20.3567 -16.3114
rtoes -3.87651
lfemur -42.3299 -1.09623 -11.3845
ltibia 27.9127
lfoot -14.4251 8.27738
ltoes -55.5109
922
root -0.702053 18.8426 5.07283 27.9958 3.33821 -0.592589
lowerback 25.2267 0.294557 2.0294
upperback 1.05194 1.15865 1.42699
thorax -12.9665 0.458129 0.0431703
lowerneck -8.1611 -3.52444 -2.79736
upperneck -19.7019 -3.55075 8.26051
head -4.3544 -1.98628 3.0909
rclavicle 0 -2.10712e-014
rhumerus 0.85104 26.6671 -70.9893
rradius 45.6248
rwrist 10.4554
rhand -24.6698 -35.8112
rfingers 7.12502
rthumb 1.83043 -65.7831
lclavicle 0 -2.10712e-014
lhumerus 4.28863 -23.8458 78.8702
lradius 44.824
lwrist -13.5299
lhand -21.8326 -43.613
lfingers 7.12502
lthumb 4.57038 -13.6823
rfemur -30.9842 -1.49088 14.7673
rtibia 13.0224
rfoot -20.3692 -16.3323
rtoes -3.86667
lfemur -42.3631 -1.08696 -11.4145
ltibia 27.9279
lfoot -14.3881 8.25657
ltoes -55.5936
923
root -0.702402 18.8417 5.06248 27.976 3.35171 -0.564491
lowerback 25.2476 0.275533 2.05398
upperback 1.05564 1.13808 1.40198
thorax -12.9728 0.446251 0.00774126
lowerneck -7.86217 -3.58998 -2.83651
upperneck -19.386 -3.64677 8.36568
head -4.29446 -2.03765 3.12815
rclavicle 1.66979e-014 1.03368e-014
rhumerus 0.817377 26.6647 -71.0663
rradius 45.6496
rwrist 10.4496
rhand -24.7518 -35.8325
rfingers 7.12502
rthumb 1.75128 -65.805
lclavicle 1.66979e-014 1.03368e-014
lhumerus 4.33333 -23.9021 78.8126
lradius 44.819
lwrist -13.442
lhand -21.732 -43.5387
lfingers 7.12502
lthumb 4.66752 -13.6101
rfemur -31.0079 -1.54216 14.7586
rtibia 13.0499
rfoot -20.3609 -16.3205
rtoes -3.92169
lfemur -42.3892 -1.02077 -11.4848
ltibia 27.9338
lfoot -14.2877 8.18431
ltoes -55.7511
924
root -0.70318 18.8418 5.05109 27.9584 3.33276 -0.560403
lowerback 25.2836 0.261608 2.04726
upperback 1.06093 1.11546 1.376
thorax -12.9862 0.435235 -0.0101494
lowerneck -7.71982 -3.71445 -2.87369
upperneck -18.8981 -3.82861 8.49978
head -4.15134 -2.12786 3.16724
rclavicle 9.14409e-015 -2.38542e-015
rhumerus 0.807422 26.7051 -71.163
rradius 45.6556
rwrist 10.4956
rhand -24.8355 -35.864
rfingers 7.12502
rthumb 1.67048 -65.8372
lclavicle 9.14409e-015 -2.38542e-015
lhumerus 4.33668 -23.9313 78.7134
lradius 44.8626
lwrist -13.3642
lhand -21.7517 -43.4367
lfingers 7.12502
lthumb 4.6485 -13.5077
rfemur -31.0529 -1.56742 14.7649
rtibia 13.0919
rfoot -20.3242 -16.3054
rtoes -4.06848
lfemur -42.4023 -0.971816 -11.5124
ltibia 27.9332
lfoot -14.2341 8.14847
ltoes -55.8298
925
root -0.702915 18.8414 5.03919 27.9587 3.29553 -0.535475
lowerback 25.3081 0.242307 1.99098
upperback 1.06385 1.07153 1.35077
thorax -12.9973 0.417706 0.00899093
lowerneck -7.66212 -3.83565 -2.86224
upperneck -18.3323 -4.01487 8.61015
head -3.97301 -2.21929 3.18696
rclavicle -1.63003e-014 -8.34896e-015
rhumerus 0.841663 26.7667 -71.2539
rradius 45.6345
rwrist 10.5598
rhand -24.6866 -35.9555
rfingers 7.12502
rthumb 1.81428 -65.9275
lclavicle -1.63003e-014 -8.34896e-015
lhumerus 4.31723 -23.9017 78.6331
lradius 44.9282
lwrist -13.3137
lhand -21.7866 -43.3549
lfingers 7.12502
lthumb 4.61482 -13.4252
rfemur -31.1154 -1.61072 14.7475
rtibia 13.1208
rfoot -20.2409 -16.2845
rtoes -4.22407
lfemur -42.4285 -1.00123 -11.5232
ltibia 27.9378
lfoot -14.2549 8.17879
ltoes -55.7517
926
root -0.702 18.8402 5.02858 27.9517 3.27239 -0.521146
lowerback 25.3263 0.237945 1.9582
upperback 1.07671 1.05509 1.33907
thorax -12.9927 0.411879 0.020242
lowerneck -7.48845 -3.9089 -2.8686
upperneck -17.8738 -4.13528 8.67803
head -3.85106 -2.27815 3.2011
rclavicle -1.98785e-015 -1.31198e-014
rhumerus 0.929315 26.833 -71.2587
rradius 45.5791
rwrist 10.5592
rhand -24.5861 -36.0577
rfingers 7.12502
rthumb 1.9113 -66.0289
lclavicle -1.98785e-015 -1.31198e-014
lhumerus 4.34584 -23.8788 78.6169
lradius 44.936
lwrist -13.3712
lhand -21.809 -43.3874
lfingers 7.12502
lthumb 4.59318 -13.4572
rfemur -31.152 -1.65346 14.7413
rtibia 13.1286
rfoot -20.1749 -16.2559
rtoes -4.40869
lfemur -42.4563 -1.04446 -11.5192
ltibia 27.9565
lfoot -14.2668 8.23045
ltoes -55.7253
927
root -0.701763 18.8392 5.01972 27.9235 3.24505 -0.515112
lowerback 25.3655 0.248946 1.92637
upperback 1.10399 1.05995 1.33377
thorax -12.9828 0.415947 0.0304969
lowerneck -7.24063 -3.89473 -2.90895
upperneck -17.4847 -4.1388 8.67963
head -3.77039 -2.2756 3.20346
rclavicle 5.96354e-015 3.57812e-015
rhumerus 1.03615 26.8697 -71.2544
rradius 45.4814
rwrist 10.5451
rhand -24.6762 -36.0343
rfingers 7.12502
rthumb 1.8243 -66.0062
lclavicle 5.96354e-015 3.57812e-015
lhumerus 4.44906 -23.9217 78.5635
lradius 44.9067
lwrist -13.3625
lhand -21.8075 -43.3897
lfingers 7.12502
lthumb 4.59466 -13.4595
rfemur -31.1465 -1.61903 14.7138
rtibia 13.1165
rfoot -20.1598 -16.2757
rtoes -4.6691
lfemur -42.4696 -0.954086 -11.5763
ltibia 27.9876
lfoot -14.2115 8.16402
ltoes -55.7872
